<svg width="28" height="28" viewBox="0 0 28 28" fill="none" xmlns="http://www.w3.org/2000/svg">
<path fill-rule="evenodd" clip-rule="evenodd" d="M14 26.25C17.2489 26.25 20.3647 24.9594 22.6621 22.6621C24.9594 20.3647 26.25 17.2489 26.25 14C26.25 10.7511 24.9594 7.63526 22.6621 5.33794C20.3647 3.04062 17.2489 1.75 14 1.75C10.7511 1.75 7.63526 3.04062 5.33794 5.33794C3.04062 7.63526 1.75 10.7511 1.75 14C1.75 17.2489 3.04062 20.3647 5.33794 22.6621C7.63526 24.9594 10.7511 26.25 14 26.25V26.25ZM14 28C17.713 28 21.274 26.525 23.8995 23.8995C26.525 21.274 28 17.713 28 14C28 10.287 26.525 6.72601 23.8995 4.10051C21.274 1.475 17.713 0 14 0C10.287 0 6.72601 1.475 4.10051 4.10051C1.475 6.72601 0 10.287 0 14C0 17.713 1.475 21.274 4.10051 23.8995C6.72601 26.525 10.287 28 14 28V28Z" fill="white"/>
<path fill-rule="evenodd" clip-rule="evenodd" d="M8.13054 13.3804C8.21182 13.2989 8.30837 13.2343 8.41468 13.1902C8.52098 13.1461 8.63495 13.1234 8.75004 13.1234C8.86513 13.1234 8.97909 13.1461 9.0854 13.1902C9.1917 13.2343 9.28826 13.2989 9.36954 13.3804L14 18.0127L18.6305 13.3804C18.7948 13.2161 19.0177 13.1238 19.25 13.1238C19.4824 13.1238 19.7052 13.2161 19.8695 13.3804C20.0338 13.5447 20.1261 13.7676 20.1261 13.9999C20.1261 14.2323 20.0338 14.4551 19.8695 14.6194L14.6195 19.8694C14.5383 19.9509 14.4417 20.0156 14.3354 20.0597C14.2291 20.1038 14.1151 20.1265 14 20.1265C13.8849 20.1265 13.771 20.1038 13.6647 20.0597C13.5584 20.0156 13.4618 19.9509 13.3805 19.8694L8.13054 14.6194C8.04905 14.5381 7.9844 14.4416 7.94029 14.3353C7.89618 14.229 7.87347 14.115 7.87347 13.9999C7.87347 13.8848 7.89618 13.7709 7.94029 13.6646C7.9844 13.5583 8.04905 13.4617 8.13054 13.3804V13.3804Z" fill="white"/>
<path fill-rule="evenodd" clip-rule="evenodd" d="M14 7.875C14.2321 7.875 14.4546 7.96719 14.6187 8.13128C14.7828 8.29538 14.875 8.51794 14.875 8.75V17.5C14.875 17.7321 14.7828 17.9546 14.6187 18.1187C14.4546 18.2828 14.2321 18.375 14 18.375C13.7679 18.375 13.5454 18.2828 13.3813 18.1187C13.2172 17.9546 13.125 17.7321 13.125 17.5V8.75C13.125 8.51794 13.2172 8.29538 13.3813 8.13128C13.5454 7.96719 13.7679 7.875 14 7.875V7.875Z" fill="white"/>
</svg>
